HIERARCHY
ROOT Hips
{
 OFFSET 0.000000 0.000000 0.000000
 CHANNELS 6 Xposition Yposition Zposition Yrotation Xrotation Zrotation
 JOINT Chest
 {
  OFFSET 0.000000 10.354800 0.006500
  CHANNELS 3 Yrotation Xrotation Zrotation
  JOINT Chest2
  {
   OFFSET 0.000000 10.435800 -0.013200
   CHANNELS 3 Yrotation Xrotation Zrotation
   JOINT Chest3
   {
    OFFSET 0.000000 10.393700 0.000000
    CHANNELS 3 Yrotation Xrotation Zrotation
    JOINT Chest4
    {
     OFFSET 0.000000 10.383100 0.000000
     CHANNELS 3 Yrotation Xrotation Zrotation
     JOINT Neck
     {
      OFFSET 0.000000 15.694000 0.000000
      CHANNELS 3 Yrotation Xrotation Zrotation
      JOINT Head
      {
       OFFSET 0.000000 9.711000 -0.028000
       CHANNELS 3 Yrotation Xrotation Zrotation
       End Site
       {
        OFFSET 0.000000 18.578700 -0.014800
       }
      }
     }
     JOINT RightCollar
     {
      OFFSET -3.157200 10.367500 0.000000
      CHANNELS 3 Yrotation Xrotation Zrotation
      JOINT RightShoulder
      {
       OFFSET -14.482500 0.000000 0.000000
       CHANNELS 3 Yrotation Xrotation Zrotation
       JOINT RightElbow
       {
        OFFSET 0.000000 -31.707800 0.000000
        CHANNELS 3 Yrotation Xrotation Zrotation
        JOINT RightWrist
        {
         OFFSET 0.000000 -25.659300 0.000000
         CHANNELS 3 Yrotation Xrotation Zrotation
         End Site
         {
          OFFSET 0.000000 -18.994300 0.000000
         }
        }
       }
      }
     }
     JOINT LeftCollar
     {
      OFFSET 3.157200 10.367500 0.000000
      CHANNELS 3 Yrotation Xrotation Zrotation
      JOINT LeftShoulder
      {
       OFFSET 14.482500 0.000000 0.000000
       CHANNELS 3 Yrotation Xrotation Zrotation
       JOINT LeftElbow
       {
        OFFSET 0.000000 -31.707800 0.000000
        CHANNELS 3 Yrotation Xrotation Zrotation
        JOINT LeftWrist
        {
         OFFSET 0.000000 -25.659300 0.000000
         CHANNELS 3 Yrotation Xrotation Zrotation
         End Site
         {
          OFFSET 0.000000 -18.994300 0.000000
         }
        }
       }
      }
     }
    }
   }
  }
 }
 JOINT RightHip
 {
  OFFSET -8.365600 -0.032100 -0.003200
  CHANNELS 3 Yrotation Xrotation Zrotation
  JOINT RightKnee
  {
   OFFSET 0.000000 -43.980000 0.003100
   CHANNELS 3 Yrotation Xrotation Zrotation
   JOINT RightAnkle
   {
    OFFSET 0.000000 -42.882800 0.005200
    CHANNELS 3 Yrotation Xrotation Zrotation
    JOINT RightToe
    {
     OFFSET 0.000000 -4.915500 10.826300
     CHANNELS 3 Yrotation Xrotation Zrotation
     End Site
     {
      OFFSET 0.000000 -1.517500 6.175900
     }
    }
   }
  }
 }
 JOINT LeftHip
 {
  OFFSET 8.365600 -0.032100 -0.003200
  CHANNELS 3 Yrotation Xrotation Zrotation
  JOINT LeftKnee
  {
   OFFSET 0.000000 -43.980000 0.003100
   CHANNELS 3 Yrotation Xrotation Zrotation
   JOINT LeftAnkle
   {
    OFFSET 0.000000 -42.882800 0.005200
    CHANNELS 3 Yrotation Xrotation Zrotation
    JOINT LeftToe
    {
     OFFSET 0.000000 -4.915500 10.826300
     CHANNELS 3 Yrotation Xrotation Zrotation
     End Site
     {
      OFFSET 0.000000 -1.517500 6.175900
     }
    }
   }
  }
 }
}
MOTION
Frames: 8
Frame Time: 0.008333
0.000000 91.618600 0.000000 0.000000 -5.767877 0.000000 0.000000 11.653817 0.000000 0.000000 -5.885947 0.000000 0.000000 -0.000000 0.000000 0.000000 -0.000000 0.000000 0.000000 12.528835 0.000000 0.000000 0.711642 0.000000 0.000000 -0.000000 0.000000 0.000000 0.000000 -90.000000 0.000000 -2.309062 0.000000 0.000000 2.309062 0.000000 0.000000 -0.000000 0.000000 0.000000 -0.000000 90.000000 0.000000 -2.309062 0.000000 0.000000 2.309062 0.000000 0.000000 8.520406 0.000000 0.000000 1.905762 0.000000 -0.000000 -4.658285 0.000000 0.000000 -0.000000 0.000000 0.000000 8.520406 0.000000 0.000000 1.905762 0.000000 -0.000000 -4.658285 0.000000 0.000000 -0.000000 0.000000
-9.901801 147.295969 19.378182 177.520959 -22.101055 -3.149639 -1.528232 12.643798 2.970647 -0.146794 1.001014 0.253825 -0.247124 1.702967 0.430104 -1.413364 11.452943 2.775169 -2.024977 21.306506 -1.418005 -1.842368 -3.021568 -1.054414 4.339699 3.285843 -4.373155 17.700386 -12.885747 -9.127880 48.148456 -38.931835 -39.881303 -2.751124 9.497709 -8.246961 -2.639499 5.733736 0.113901 -11.607845 -21.283525 1.256985 -50.311503 -32.996833 41.597196 -10.832489 6.462315 11.381759 6.919400 -52.961127 -5.916451 -157.193020 73.725952 -149.828187 0.380704 -29.801229 1.657689 -0.011963 -0.067364 -0.006798 -15.978768 -54.354985 12.767764 143.737770 75.416193 139.670039 -1.286872 -24.446756 -2.503142 0.032616 0.073119 0.016835
-9.316660 140.749991 19.159158 177.530435 -22.095971 -3.173621 -1.526728 12.642265 2.991280 -0.146289 1.000647 0.253593 -0.246031 1.702364 0.429976 -1.404223 11.452348 2.778007 -2.029329 21.293774 -1.412858 -1.848043 -3.036345 -1.048007 4.339116 3.286078 -4.377213 17.645084 -12.813722 -9.138872 48.195154 -38.992989 -39.912587 -2.801702 9.420235 -8.279458 -2.610363 5.744291 0.137459 -11.598825 -21.215781 1.217428 -50.404593 -33.080459 41.669223 -10.832049 6.499519 11.395646 6.875525 -52.975380 -5.878983 -157.232663 73.723052 -149.872436 0.373690 -29.821551 1.658562 -0.008947 -0.048658 -0.004058 -16.006113 -54.358712 12.795712 143.746278 75.423773 139.686548 -1.267280 -24.419691 -2.504867 0.022390 0.055012 0.010173
-8.832273 135.359120 18.979491 177.548887 -22.088090 -3.211761 -1.528283 12.635757 3.025767 -0.145501 1.000403 0.253866 -0.236089 1.706416 0.428331 -1.411829 11.451496 2.779078 -2.033916 21.285249 -1.408175 -1.848021 -3.056355 -1.040760 4.340963 3.281314 -4.375650 17.619311 -12.778916 -9.138159 48.202234 -39.013103 -39.916614 -2.860684 9.343960 -8.329418 -2.575102 5.747957 0.160513 -11.586834 -21.145918 1.174462 -50.484811 -33.164548 41.730411 -10.775330 6.538829 11.424835 6.815787 -52.991708 -5.828634 -157.257672 73.717316 -149.898254 0.368059 -29.852797 1.658712 -0.005024 -0.020019 -0.002280 -16.059523 -54.365371 12.843786 143.792954 75.439695 139.737752 -1.227599 -24.372994 -2.503069 0.004497 0.019783 0.002042
-8.485187 131.465727 18.849255 177.560639 -22.084611 -3.223870 -1.525486 12.637702 3.034140 -0.145451 1.000599 0.253737 -0.244595 1.702399 0.430306 -1.411195 11.451772 2.779008 -2.032112 21.279901 -1.405966 -1.847254 -3.077582 -1.032280 4.345320 3.277904 -4.378095 17.602759 -12.748352 -9.129696 48.217558 -39.030486 -39.938015 -2.927280 9.283396 -8.382993 -2.503752 5.753034 0.193319 -11.625412 -21.117962 1.135839 -50.506247 -33.232046 41.738206 -10.774322 6.568251 11.443212 6.789144 -52.999008 -5.808771 -157.255088 73.713542 -149.901773 0.366417 -29.859615 1.662502 -0.004221 -0.014055 -0.001916 -16.078452 -54.367911 12.854049 143.796896 75.445871 139.744151 -1.196015 -24.363696 -2.514390 0.003618 0.014754 0.001643
-8.265898 129.006489 18.767903 177.571423 -22.077587 -3.234138 -1.520097 12.635450 3.044431 -0.149285 0.999495 0.252863 -0.244442 1.701784 0.430267 -1.410349 11.449784 2.779222 -2.021579 21.257149 -1.394247 -1.861797 -3.080982 -1.027702 4.378727 3.276347 -4.368505 17.555164 -12.721485 -9.123124 48.206813 -39.042129 -39.927497 -2.976135 9.218250 -8.457616 -2.470907 5.751580 0.209407 -11.638060 -21.080150 1.110247 -50.538573 -33.277822 41.760802 -10.765455 6.590237 11.449932 6.759655 -53.007878 -5.783631 -157.231141 73.712471 -149.887820 0.364745 -29.862379 1.667370 -0.002641 -0.009409 -0.001199 -16.099151 -54.374133 12.866773 143.798203 75.447859 139.746543 -1.174025 -24.359531 -2.522151 0.003516 0.012352 0.001597
-8.145106 127.654290 18.722605 177.575719 -22.078382 -3.241086 -1.518634 12.637127 3.051673 -0.144642 0.999982 0.253883 -0.243430 1.701292 0.430511 -1.403409 11.448257 2.782655 -2.030951 21.250452 -1.392621 -1.868528 -3.099338 -1.022625 4.388474 3.276374 -4.363481 17.527631 -12.709019 -9.120810 48.189974 -39.042773 -39.901333 -3.014041 9.152598 -8.534953 -2.434080 5.751607 0.226009 -11.603258 -20.963335 1.037844 -50.652441 -33.394324 41.845428 -10.809019 6.631638 11.471209 6.735306 -53.007846 -5.751787 -157.183747 73.710125 -149.853091 0.356860 -29.863062 1.673215 -0.000641 -0.006480 -0.000291 -16.113881 -54.373567 12.879330 143.809870 75.448585 139.756863 -1.162701 -24.354535 -2.525731 0.003233 0.010523 0.001468
-8.088053 127.010583 18.700998 177.581663 -22.080359 -3.244711 -1.513578 12.641173 3.056444 -0.144215 1.000429 0.254337 -0.242674 1.702073 0.431278 -1.381199 11.454453 2.796302 -2.064017 21.236918 -1.400591 -1.871750 -3.123391 -1.016463 4.380216 3.266993 -4.362581 17.502315 -12.698903 -9.119917 48.148502 -39.044853 -39.860229 -3.011639 9.080728 -8.610097 -2.425888 5.741507 0.234328 -11.593277 -20.888740 0.987077 -50.719528 -33.478334 41.894030 -10.850745 6.664364 11.493272 6.723718 -53.004482 -5.743475 -157.172183 73.710562 -149.846452 0.357590 -29.863209 1.674648 -0.001715 -0.005502 -0.000779 -16.127694 -54.372909 12.887191 143.818807 75.446704 139.761144 -1.147163 -24.351661 -2.531124 0.004057 0.008997 0.001842
